<?xml version="1.0" encoding="UTF-8" standalone="no"?><!DOCTYPE svg PUBLIC "-//W3C//DTD SVG 1.1//EN" "http://www.w3.org/Graphics/SVG/1.1/DTD/svg11.dtd"><svg width="100%" height="100%" viewBox="0 0 1161 219" version="1.1" xmlns="http://www.w3.org/2000/svg" xmlns:xlink="http://www.w3.org/1999/xlink" xml:space="preserve" xmlns:serif="http://www.serif.com/" style="fill-rule:evenodd;clip-rule:evenodd;stroke-linejoin:round;stroke-miterlimit:2;"><g id="g1"><path id="path1" d="M110.918,216.445c-26.478,-2.552 -52.569,-14.961 -71.844,-34.17c-12.211,-12.171 -22.148,-28.565 -25.929,-42.778c-3.676,-13.823 -3.264,-28.182 1.216,-42.33c2.182,-6.89 7.187,-17.656 10.176,-21.886c0.615,-0.87 0.721,-1.75 0.721,-5.971c0,-2.723 0.18,-6.417 0.399,-8.21c2.175,-17.768 12.358,-32.533 27.485,-39.849c10.499,-5.077 21.331,-6.082 32.057,-2.974c6.273,1.818 11.76,4.633 16.734,8.585l2.859,2.273l4.367,-0.761c3.1,-0.54 7.012,-0.825 13.495,-0.985l9.13,-0.226l1.331,-2.379c6.907,-12.352 19.598,-20.769 34.028,-22.57c6.661,-0.832 11.501,0.266 15.035,3.41c0.964,0.858 3.092,2.107 4.799,2.818c4.045,1.683 10.562,6.054 13.581,9.108c6.787,6.865 10.776,14.52 12.605,24.186c0.916,4.844 0.583,12.405 -0.778,17.643c-0.991,3.816 -3.516,9.643 -5.346,12.335l-0.952,1.402l2.603,3.324c3.597,4.592 5.68,8.319 7.017,12.554c0.2,0.634 0.51,3.057 0.689,5.384c0.179,2.327 0.675,5.843 1.104,7.813c1.998,9.184 2.138,24.444 0.318,34.686c-4.259,23.977 -15.953,43.976 -34.448,58.916c-5.611,4.532 -8.501,6.435 -14.807,9.748c-10.864,5.707 -22.818,9.273 -36.033,10.75c-5.507,0.615 -16.049,0.69 -21.612,0.154Zm24.914,-11.857c11.374,-1.811 21.504,-5.328 30.758,-10.68c1.698,-0.982 3.149,-1.831 3.224,-1.886c0.076,-0.056 -0.469,-1.107 -1.211,-2.336c-3.707,-6.138 -5.766,-14.316 -5.744,-22.81c0.027,-10.616 3.513,-20.338 10.574,-29.493c1.972,-2.557 9.929,-10.472 13.963,-13.888c4.102,-3.475 5.908,-6.008 6.54,-9.17l0.238,-1.188l-2.057,0.168c-4.571,0.373 -16.631,2.528 -22.056,3.942c-13.83,3.606 -23.896,7.391 -47.236,17.766c-18.285,8.128 -27.313,11.342 -38.351,13.653c-4.594,0.962 -5.983,1.085 -12.294,1.09c-7.197,0.006 -10.438,-0.449 -14.122,-1.98c-0.681,-0.283 -1.327,-0.515 -1.436,-0.515c-0.109,0 -0.615,0.822 -1.124,1.827c-1.329,2.62 -2.206,3.274 -4.665,3.478c-1.55,0.128 -2.364,0.004 -3.089,-0.471c-1.365,-0.894 -2.483,-2.861 -2.485,-4.37c-0.003,-2.478 4.974,-14.4 6.812,-16.319c1.929,-2.013 5.072,-2.307 7.155,-0.668c1.436,1.129 2.383,3.863 1.86,5.365c-0.376,1.078 -0.331,1.221 0.484,1.531c2.944,1.119 4.635,1.34 10.225,1.337c5.112,-0.003 6.674,-0.158 10.961,-1.095c9.135,-1.996 17.751,-4.994 30.622,-10.655c14.157,-6.227 16.059,-7.04 24.358,-10.408c18.309,-7.433 32.382,-11.445 46.94,-13.383c13.533,-1.802 16.227,-2.519 18.7,-4.977c1.878,-1.867 2.162,-3.647 1.121,-7.017c-1.308,-4.235 -3.39,-6.923 -14.596,-18.849c-10.012,-10.654 -15.494,-18.119 -19.866,-27.053c-4.258,-8.7 -5.732,-14.431 -5.738,-22.307c-0.003,-2.976 0.208,-5.826 0.52,-7.04c0.288,-1.122 0.446,-2.117 0.352,-2.212c-0.341,-0.34 -5.179,1.477 -8.537,3.207c-1.887,0.972 -4.483,2.607 -5.769,3.635c-4.693,3.747 -9.196,10.67 -10.199,15.679l-0.424,2.115l-12.204,-0c-6.712,-0 -12.841,0.135 -13.62,0.301l-1.416,0.301l1.877,3.737c3.928,7.826 5.186,13.442 5.186,23.16c-0,9.572 -1.034,14.227 -5,22.505c-11.33,23.647 -39.685,33.69 -62.678,22.2c-8.355,-4.175 -16.038,-11.566 -20.457,-19.68c-0.813,-1.492 -1.586,-2.714 -1.718,-2.715c-0.418,-0.005 -4.04,8.496 -5.325,12.497c-1.899,5.916 -2.71,10.554 -2.964,16.97c-0.454,11.43 1.479,20.278 6.797,31.105c11.659,23.738 33.073,41.977 60.308,51.368c6.869,2.369 15.585,4.191 24.499,5.123c3.975,0.416 17.477,-0.126 22.307,-0.895Zm15.199,-111.46c-1.933,-0.971 -3.197,-3.008 -2.966,-4.777c0.484,-3.696 4.589,-5.52 7.6,-3.377c3.177,2.263 2.721,6.798 -0.826,8.218c-1.911,0.765 -2.167,0.76 -3.808,-0.064l0,-0Zm26.691,-6.237c-0.44,-0.179 -1.262,-0.873 -1.827,-1.544c-3.065,-3.643 0.98,-9.327 5.432,-7.633c3.862,1.47 4.258,7.238 0.616,8.966c-1.341,0.636 -2.968,0.717 -4.221,0.211Zm-96.07,16.327c13.016,-3.698 22.593,-13.687 26.367,-27.501c0.777,-2.846 0.886,-4.093 0.857,-9.799c-0.03,-5.954 -0.126,-6.848 -1.078,-10c-2.313,-7.658 -4.69,-11.875 -9.57,-16.975c-4.762,-4.976 -10.06,-8.086 -17.01,-9.982c-4.078,-1.113 -13.136,-1.04 -17.221,0.137c-7.262,2.094 -14.858,7.183 -19.076,12.78c-14.874,19.74 -8.849,48.186 12.452,58.788c7.879,3.921 16.333,4.81 24.279,2.553l-0,-0.001Zm-12.453,-14.458c-4.394,-0.733 -10.017,-3.908 -12.917,-7.296c-1.802,-2.105 -3.943,-6.247 -4.667,-9.028c-0.761,-2.92 -0.752,-8.08 0.02,-11.078c1.432,-5.565 4.673,-10.247 9.177,-13.26c3.806,-2.546 6.832,-3.551 11.368,-3.775l3.654,-0.18l-1.154,0.885c-5.492,4.214 -6.682,10.805 -2.883,15.965c2.685,3.647 8.608,5.053 12.882,3.058c3.117,-1.454 4.851,-3.804 6.426,-8.71c0.245,-0.764 1.952,2.599 2.839,5.593c0.824,2.784 0.915,7.992 0.19,10.945c-2.185,8.906 -8.52,15.092 -17.144,16.742c-3.24,0.62 -4.744,0.647 -7.791,0.139l0,-0Zm14.558,-8.523c4.753,-3.175 2.591,-10.669 -3.077,-10.664c-2.425,0.001 -4.124,1.11 -5.107,3.331c-1.284,2.903 -0.477,5.401 2.372,7.34c1.696,1.154 4.078,1.151 5.812,-0.007l0,-0Zm115.642,-17.877c2.441,-5.359 2.972,-7.839 2.94,-13.749c-0.025,-4.716 -0.159,-5.815 -1.08,-8.846c-2.858,-9.407 -10.266,-17.57 -19.391,-21.369c-1.579,-0.658 -3.442,-1.288 -4.139,-1.401c-1.219,-0.198 -1.286,-0.141 -1.76,1.474c-0.694,2.366 -0.579,8.842 0.209,11.873c1.227,4.716 2.216,7.314 2.929,7.696c1.239,0.663 3.935,0.423 5.521,-0.491c1.508,-0.869 2.727,-2.672 3.119,-4.612c0.208,-1.028 0.244,-1.042 1.149,-0.45c1.422,0.932 4.298,5.448 5.188,8.148c1.236,3.744 1.378,7.401 0.43,11.015c-0.438,1.67 -1.228,3.808 -1.754,4.75c-0.794,1.419 -0.876,1.828 -0.482,2.382c0.776,1.092 5.455,6.143 5.706,6.16c0.128,0.009 0.764,-1.152 1.415,-2.58Zm-8.766,-12.593c1.601,-0.828 2.312,-2.05 2.312,-3.972c0,-1.387 -0.21,-1.88 -1.194,-2.799c-0.951,-0.889 -1.547,-1.116 -2.923,-1.116c-1.437,0 -1.916,0.201 -2.844,1.194c-1.837,1.967 -1.273,5.377 1.101,6.665c1.351,0.733 2.171,0.74 3.548,0.028l0,-0Z" style="fill-rule:nonzero;"/><g transform="matrix(165.374,0,0,165.374,1155.78,168.16)"></g><text x="240.575px" y="168.16px" style="font-family:'CandyBeans', 'Candy Beans';font-size:165.374px;">N<tspan x="338.12px 430.093px " y="168.16px 168.16px ">OS</tspan>2X-F<tspan x="878.572px 967.961px 1063.81px " y="168.16px 168.16px 168.16px ">ROG</tspan></text></g></svg>