<?xml version="1.0" encoding="UTF-8" standalone="no"?><!DOCTYPE svg PUBLIC "-//W3C//DTD SVG 1.1//EN" "http://www.w3.org/Graphics/SVG/1.1/DTD/svg11.dtd"><svg width="100%" height="100%" viewBox="0 0 1161 219" version="1.1" xmlns="http://www.w3.org/2000/svg" xmlns:xlink="http://www.w3.org/1999/xlink" xml:space="preserve" xmlns:serif="http://www.serif.com/" style="fill-rule:evenodd;clip-rule:evenodd;stroke-linejoin:round;stroke-miterlimit:2;"><g id="g1"><path id="path1" d="M110.918,216.445c-26.478,-2.552 -52.569,-14.961 -71.844,-34.17c-12.211,-12.171 -22.148,-28.565 -25.929,-42.778c-3.676,-13.823 -3.264,-28.182 1.216,-42.33c2.182,-6.89 7.187,-17.656 10.176,-21.886c0.615,-0.87 0.721,-1.75 0.721,-5.971c0,-2.723 0.18,-6.417 0.399,-8.21c2.175,-17.768 12.358,-32.533 27.485,-39.849c10.499,-5.077 21.331,-6.082 32.057,-2.974c6.273,1.818 11.76,4.633 16.734,8.585l2.859,2.273l4.367,-0.761c3.1,-0.54 7.012,-0.825 13.495,-0.985l9.13,-0.226l1.331,-2.379c6.907,-12.352 19.598,-20.769 34.028,-22.57c6.661,-0.832 11.501,0.266 15.035,3.41c0.964,0.858 3.092,2.107 4.799,2.818c4.045,1.683 10.562,6.054 13.581,9.108c6.787,6.865 10.776,14.52 12.605,24.186c0.916,4.844 0.583,12.405 -0.778,17.643c-0.991,3.816 -3.516,9.643 -5.346,12.335l-0.952,1.402l2.603,3.324c3.597,4.592 5.68,8.319 7.017,12.554c0.2,0.634 0.51,3.057 0.689,5.384c0.179,2.327 0.675,5.843 1.104,7.813c1.998,9.184 2.138,24.444 0.318,34.686c-4.259,23.977 -15.953,43.976 -34.448,58.916c-5.611,4.532 -8.501,6.435 -14.807,9.748c-10.864,5.707 -22.818,9.273 -36.033,10.75c-5.507,0.615 -16.049,0.69 -21.612,0.154Zm24.914,-11.857c11.374,-1.811 21.504,-5.328 30.758,-10.68c1.698,-0.982 3.149,-1.831 3.224,-1.886c0.076,-0.056 -0.469,-1.107 -1.211,-2.336c-3.707,-6.138 -5.766,-14.316 -5.744,-22.81c0.027,-10.616 3.513,-20.338 10.574,-29.493c1.972,-2.557 9.929,-10.472 13.963,-13.888c4.102,-3.475 5.908,-6.008 6.54,-9.17l0.238,-1.188l-2.057,0.168c-4.571,0.373 -16.631,2.528 -22.056,3.942c-13.83,3.606 -23.896,7.391 -47.236,17.766c-18.285,8.128 -27.313,11.342 -38.351,13.653c-4.594,0.962 -5.983,1.085 -12.294,1.09c-7.197,0.006 -10.438,-0.449 -14.122,-1.98c-0.681,-0.283 -1.327,-0.515 -1.436,-0.515c-0.109,0 -0.615,0.822 -1.124,1.827c-1.329,2.62 -2.206,3.274 -4.665,3.478c-1.55,0.128 -2.364,0.004 -3.089,-0.471c-1.365,-0.894 -2.483,-2.861 -2.485,-4.37c-0.003,-2.478 4.974,-14.4 6.812,-16.319c1.929,-2.013 5.072,-2.307 7.155,-0.668c1.436,1.129 2.383,3.863 1.86,5.365c-0.376,1.078 -0.331,1.221 0.484,1.531c2.944,1.119 4.635,1.34 10.225,1.337c5.112,-0.003 6.674,-0.158 10.961,-1.095c9.135,-1.996 17.751,-4.994 30.622,-10.655c14.157,-6.227 16.059,-7.04 24.358,-10.408c18.309,-7.433 32.382,-11.445 46.94,-13.383c13.533,-1.802 16.227,-2.519 18.7,-4.977c1.878,-1.867 2.162,-3.647 1.121,-7.017c-1.308,-4.235 -3.39,-6.923 -14.596,-18.849c-10.012,-10.654 -15.494,-18.119 -19.866,-27.053c-4.258,-8.7 -5.732,-14.431 -5.738,-22.307c-0.003,-2.976 0.208,-5.826 0.52,-7.04c0.288,-1.122 0.446,-2.117 0.352,-2.212c-0.341,-0.34 -5.179,1.477 -8.537,3.207c-1.887,0.972 -4.483,2.607 -5.769,3.635c-4.693,3.747 -9.196,10.67 -10.199,15.679l-0.424,2.115l-12.204,-0c-6.712,-0 -12.841,0.135 -13.62,0.301l-1.416,0.301l1.877,3.737c3.928,7.826 5.186,13.442 5.186,23.16c-0,9.572 -1.034,14.227 -5,22.505c-11.33,23.647 -39.685,33.69 -62.678,22.2c-8.355,-4.175 -16.038,-11.566 -20.457,-19.68c-0.813,-1.492 -1.586,-2.714 -1.718,-2.715c-0.418,-0.005 -4.04,8.496 -5.325,12.497c-1.899,5.916 -2.71,10.554 -2.964,16.97c-0.454,11.43 1.479,20.278 6.797,31.105c11.659,23.738 33.073,41.977 60.308,51.368c6.869,2.369 15.585,4.191 24.499,5.123c3.975,0.416 17.477,-0.126 22.307,-0.895Zm15.199,-111.46c-1.933,-0.971 -3.197,-3.008 -2.966,-4.777c0.484,-3.696 4.589,-5.52 7.6,-3.377c3.177,2.263 2.721,6.798 -0.826,8.218c-1.911,0.765 -2.167,0.76 -3.808,-0.064l0,-0Zm26.691,-6.237c-0.44,-0.179 -1.262,-0.873 -1.827,-1.544c-3.065,-3.643 0.98,-9.327 5.432,-7.633c3.862,1.47 4.258,7.238 0.616,8.966c-1.341,0.636 -2.968,0.717 -4.221,0.211Zm-96.07,16.327c13.016,-3.698 22.593,-13.687 26.367,-27.501c0.777,-2.846 0.886,-4.093 0.857,-9.799c-0.03,-5.954 -0.126,-6.848 -1.078,-10c-2.313,-7.658 -4.69,-11.875 -9.57,-16.975c-4.762,-4.976 -10.06,-8.086 -17.01,-9.982c-4.078,-1.113 -13.136,-1.04 -17.221,0.137c-7.262,2.094 -14.858,7.183 -19.076,12.78c-14.874,19.74 -8.849,48.186 12.452,58.788c7.879,3.921 16.333,4.81 24.279,2.553l-0,-0.001Zm-12.453,-14.458c-4.394,-0.733 -10.017,-3.908 -12.917,-7.296c-1.802,-2.105 -3.943,-6.247 -4.667,-9.028c-0.761,-2.92 -0.752,-8.08 0.02,-11.078c1.432,-5.565 4.673,-10.247 9.177,-13.26c3.806,-2.546 6.832,-3.551 11.368,-3.775l3.654,-0.18l-1.154,0.885c-5.492,4.214 -6.682,10.805 -2.883,15.965c2.685,3.647 8.608,5.053 12.882,3.058c3.117,-1.454 4.851,-3.804 6.426,-8.71c0.245,-0.764 1.952,2.599 2.839,5.593c0.824,2.784 0.915,7.992 0.19,10.945c-2.185,8.906 -8.52,15.092 -17.144,16.742c-3.24,0.62 -4.744,0.647 -7.791,0.139l0,-0Zm14.558,-8.523c4.753,-3.175 2.591,-10.669 -3.077,-10.664c-2.425,0.001 -4.124,1.11 -5.107,3.331c-1.284,2.903 -0.477,5.401 2.372,7.34c1.696,1.154 4.078,1.151 5.812,-0.007l0,-0Zm115.642,-17.877c2.441,-5.359 2.972,-7.839 2.94,-13.749c-0.025,-4.716 -0.159,-5.815 -1.08,-8.846c-2.858,-9.407 -10.266,-17.57 -19.391,-21.369c-1.579,-0.658 -3.442,-1.288 -4.139,-1.401c-1.219,-0.198 -1.286,-0.141 -1.76,1.474c-0.694,2.366 -0.579,8.842 0.209,11.873c1.227,4.716 2.216,7.314 2.929,7.696c1.239,0.663 3.935,0.423 5.521,-0.491c1.508,-0.869 2.727,-2.672 3.119,-4.612c0.208,-1.028 0.244,-1.042 1.149,-0.45c1.422,0.932 4.298,5.448 5.188,8.148c1.236,3.744 1.378,7.401 0.43,11.015c-0.438,1.67 -1.228,3.808 -1.754,4.75c-0.794,1.419 -0.876,1.828 -0.482,2.382c0.776,1.092 5.455,6.143 5.706,6.16c0.128,0.009 0.764,-1.152 1.415,-2.58Zm-8.766,-12.593c1.601,-0.828 2.312,-2.05 2.312,-3.972c0,-1.387 -0.21,-1.88 -1.194,-2.799c-0.951,-0.889 -1.547,-1.116 -2.923,-1.116c-1.437,0 -1.916,0.201 -2.844,1.194c-1.837,1.967 -1.273,5.377 1.101,6.665c1.351,0.733 2.171,0.74 3.548,0.028l0,-0Z" style="fill-rule:nonzero;"/><g><path d="M313.088,50.59c4.253,-0 7.779,2.019 10.578,6.056c1.399,1.453 2.099,5.652 2.099,12.597c0.485,17.28 0.727,32.999 0.727,47.157l0,1.857c0,23.956 -1.023,37.468 -3.068,40.536c-0.377,1.4 -1.75,3.203 -4.119,5.41c-2.53,1.938 -5.248,2.907 -8.155,2.907c-5.653,0 -10.794,-3.849 -15.423,-11.547c-7.052,-11.035 -14.993,-24.574 -23.821,-40.616c-0.108,-0 -1.911,-3.096 -5.41,-9.286l-0.162,-0c0,4.629 0.7,21.317 2.1,50.064c-0,4.091 -1.938,7.563 -5.814,10.416c-2.261,1.346 -4.549,2.019 -6.864,2.019c-4.63,0 -8.344,-2.234 -11.143,-6.702c-1.185,-1.992 -1.777,-5.948 -1.777,-11.87c-1.507,-27.186 -2.261,-49.23 -2.261,-66.133c0,-14.428 1.05,-22.798 3.149,-25.113c0.916,-1.938 2.531,-3.634 4.845,-5.087c2.1,-1.185 4.361,-1.777 6.783,-1.777c5.599,0 10.578,3.688 14.939,11.063c3.068,4.522 8.909,14.292 17.522,29.312c6.891,12.327 11.305,20.052 13.243,23.174l0.081,0l-0,-0.08c-0,-13.62 -0.296,-31.008 -0.888,-52.164c-0,-2.53 1.076,-5.168 3.23,-7.913c2.745,-2.854 5.948,-4.28 9.609,-4.28Z" style="fill-rule:nonzero;"/><path d="M381.321,50.751l1.453,0c7.644,0 14.965,3.042 21.964,9.125c4.199,4.199 6.917,7.51 8.155,9.932c7.429,12.489 11.144,26.863 11.144,43.12c-0,17.711 -4.468,31.976 -13.405,42.797c-7.536,8.29 -16.499,12.435 -26.889,12.435l-0.727,0c-9.259,0 -17.872,-3.122 -25.839,-9.367c-4.684,-4.468 -7.16,-7.159 -7.429,-8.075c-2.853,-3.929 -5.007,-7.751 -6.46,-11.466c-3.445,-8.882 -5.168,-18.195 -5.168,-27.939c-0,-17.334 4.522,-32.246 13.566,-44.735c3.014,-3.661 5.867,-6.487 8.559,-8.479c6.783,-4.898 13.808,-7.348 21.076,-7.348Zm-17.846,60.562c0,10.228 2.342,18.572 7.025,25.032c3.445,4.307 7.806,6.46 13.081,6.46c7.268,0 12.059,-6.756 14.374,-20.268c0.484,-3.445 0.727,-6.648 0.727,-9.609c-0,-11.574 -2.477,-21.641 -7.429,-30.2c-2.907,-4.414 -6.057,-6.622 -9.448,-6.622c-6.568,0 -11.897,6.057 -15.988,18.169c-1.561,5.599 -2.342,11.278 -2.342,17.038Z" style="fill-rule:nonzero;"/><path d="M463.119,50.994l3.472,-0.162l1.615,0c8.29,0 18.519,2.342 30.685,7.025c6.029,2.477 9.151,6.46 9.367,11.951l-0,0.485c-0,4.037 -1.831,7.482 -5.491,10.335c-2.154,1.454 -4.414,2.208 -6.783,2.261l-0.323,0c-2.153,0 -5.464,-0.996 -9.932,-2.987c-7.268,-2.477 -13.351,-3.715 -18.249,-3.715l-1.131,0l-0.888,0.081c-5.007,0.161 -7.94,1.938 -8.802,5.329c-0.377,1.508 -0.565,2.611 -0.565,3.311l0.081,1.05c0.107,3.122 8.29,7.725 24.547,13.808c6.083,2.584 11.413,5.437 15.989,8.559c8.451,6.514 12.866,14.131 13.242,22.852l0,2.1c0,5.383 -1.615,11.197 -4.845,17.441c-0.915,2.046 -3.283,4.899 -7.105,8.56c-4.092,3.607 -9.61,6.217 -16.554,7.832c-2.961,0.539 -5.249,0.835 -6.864,0.889l-3.391,0.161l-1.938,0c-7.86,0 -17.415,-1.722 -28.666,-5.168c-2.691,-0.807 -4.899,-2.072 -6.621,-3.795c-2.261,-2.476 -3.446,-5.276 -3.553,-8.398l-0,-0.646c-0,-3.983 1.803,-7.375 5.41,-10.174c2.153,-1.4 4.414,-2.153 6.783,-2.261l0.161,-0c1.831,-0 5.141,0.807 9.932,2.422c6.622,1.777 12.436,2.665 17.442,2.665l1.211,0l0.808,-0.081c5.76,-0.215 9.448,-1.776 11.063,-4.683c0.915,-1.992 1.372,-3.768 1.372,-5.33l0,-0.242c-0.107,-2.961 -7.536,-7.213 -22.286,-12.758c-6.891,-2.799 -12.813,-5.868 -17.765,-9.206c-4.684,-3.714 -7.51,-6.567 -8.479,-8.559c-3.337,-4.791 -5.114,-9.824 -5.329,-15.1l-0,-1.453c-0,-7.591 2.315,-14.751 6.944,-21.48c2.907,-3.499 5.249,-5.76 7.025,-6.783c5.868,-3.875 12.005,-5.921 18.411,-6.136Z" style="fill-rule:nonzero;"/><path d="M559.452,50.671c9.959,-0 19.219,4.064 27.778,12.193c5.975,6.244 8.963,13.781 8.963,22.609c0,15.504 -10.04,34.346 -30.119,56.525l-0,0.242c13.566,-0.216 21.587,-0.323 24.063,-0.323c3.768,-0 7.106,1.938 10.013,5.814c1.346,2.153 2.019,4.306 2.019,6.46l-0,0.646c-0,4.145 -2.1,7.671 -6.299,10.578c-2.207,1.238 -4.226,1.857 -6.056,1.857c-2.422,-0 -21.237,0.296 -56.443,0.888c-2.046,0 -4.495,-1.05 -7.349,-3.149c-2.907,-2.746 -4.36,-5.814 -4.36,-9.205l0,-0.808c0,-4.037 2.234,-7.752 6.702,-11.143c10.282,-9.582 17.55,-16.958 21.802,-22.125c8.721,-10.336 14.427,-18.492 17.119,-24.467c2.315,-4.899 3.472,-8.802 3.472,-11.709l0,-0.565c0,-2.476 -1.292,-4.495 -3.876,-6.056c-2.584,-1.884 -5.006,-2.827 -7.267,-2.827l-0.565,0c-5.114,0 -11.009,3.957 -17.684,11.871c-3.338,5.49 -7.375,8.236 -12.113,8.236l-0.484,-0c-4.307,-0 -7.913,-2.153 -10.82,-6.46c-1.077,-2.153 -1.615,-4.145 -1.615,-5.975l-0,-0.485c-0,-3.768 2.368,-8.182 7.105,-13.243c11.09,-12.92 23.095,-19.379 36.014,-19.379Z" style="fill-rule:nonzero;"/><path d="M625.909,50.751l0.726,0c5.115,0 9.179,3.069 12.194,9.206c8.344,13.727 13.135,21.506 14.373,23.336l0.081,0c0.161,-0.108 6.217,-9.178 18.168,-27.212c2.853,-3.069 6.002,-4.603 9.448,-4.603l0.807,0c4.684,0 8.425,2.476 11.224,7.429c0.7,1.83 1.05,3.418 1.05,4.764l0,0.808c0,2.907 -1.48,6.298 -4.441,10.174l-21.56,32.542l-0,0.161c0.215,0.592 3.822,6.487 10.82,17.684l13.162,21.479c0.915,1.885 1.373,3.715 1.373,5.491l0,0.808c0,4.522 -2.396,8.209 -7.187,11.062c-1.83,0.754 -3.472,1.131 -4.925,1.131l-0.969,-0c-5.114,-0 -9.259,-3.149 -12.436,-9.448c-0.538,-0.699 -5.625,-8.882 -15.261,-24.547l-0.162,-0c-2.045,2.907 -9.232,13.673 -21.56,32.299c-2.96,3.23 -6.19,4.845 -9.689,4.845l-0.646,0c-4.361,0 -7.995,-2.261 -10.902,-6.783c-0.968,-1.992 -1.453,-3.849 -1.453,-5.571l0,-0.566c0,-3.122 1.776,-6.998 5.329,-11.627l24.225,-36.741c-11.412,-18.68 -19.003,-31.25 -22.771,-37.71c-0.861,-1.938 -1.292,-3.741 -1.292,-5.41l-0,-0.646c-0,-4.361 2.234,-7.994 6.702,-10.901c1.992,-0.969 3.849,-1.454 5.572,-1.454Z" style="fill-rule:nonzero;"/><path d="M712.31,96.778l67.506,0c4.683,0 8.425,2.503 11.224,7.51c0.646,1.776 0.969,3.337 0.969,4.683l0,0.969c0,4.468 -2.395,8.129 -7.187,10.982c-1.884,0.808 -3.579,1.211 -5.087,1.211l-67.344,0c-4.415,0 -8.075,-2.261 -10.982,-6.783c-0.969,-1.991 -1.454,-3.849 -1.454,-5.571l0,-0.646c0,-4.361 2.261,-7.994 6.783,-10.901c1.992,-0.969 3.849,-1.454 5.572,-1.454Z" style="fill-rule:nonzero;"/><path d="M861.13,51.64c3.715,-0 7.025,1.749 9.932,5.248c1.615,2.369 2.423,4.872 2.423,7.51c-0,4.683 -2.396,8.452 -7.187,11.305c-1.292,0.915 -4.845,1.372 -10.659,1.372c-18.357,0.377 -28.531,0.593 -30.523,0.646l-0.081,0.162c0,2.315 -0.134,9.421 -0.403,21.318c9.851,-0.108 18.976,-0.162 27.374,-0.162c4.037,0 7.482,1.938 10.335,5.814c1.346,2.207 2.019,4.495 2.019,6.864c0,4.306 -2.019,7.832 -6.056,10.578c-2.261,1.346 -4.63,2.019 -7.106,2.019c-6.514,-0 -15.531,0.08 -27.051,0.242c-0.43,22.448 -0.78,33.672 -1.05,33.672c-1.13,3.768 -2.987,6.406 -5.571,7.913c-2.207,1.346 -4.495,2.019 -6.864,2.019c-4.468,0 -8.156,-2.261 -11.062,-6.783c-0.916,-1.83 -1.427,-3.633 -1.535,-5.41c1.238,-60.077 1.938,-91.085 2.1,-93.023c1.023,-3.553 2.718,-6.19 5.087,-7.913c2.153,-1.615 5.222,-2.422 9.205,-2.422c28.155,-0.646 43.712,-0.969 46.673,-0.969Z" style="fill-rule:nonzero;"/><path d="M910.952,50.751l1.857,0c18.949,0 32.731,5.626 41.344,16.877c4.306,6.352 6.46,13.485 6.46,21.398c-0,13.458 -6.379,24.279 -19.138,32.461c-2.261,1.4 -4.979,2.827 -8.155,4.28c-0,0.215 2.503,2.019 7.509,5.41c8.829,6.191 13.674,9.663 14.535,10.417c2.799,2.745 4.199,5.868 4.199,9.367c-0,4.306 -1.965,7.859 -5.895,10.659c-2.207,1.345 -4.495,2.018 -6.863,2.018c-3.123,0 -6.595,-1.534 -10.417,-4.602l-32.057,-22.61l-0.242,-0c0.107,5.652 0.161,10.201 0.161,13.646l0,3.634c0,6.945 -2.934,11.547 -8.802,13.808c-1.722,0.431 -3.068,0.646 -4.037,0.646c-4.307,0 -7.833,-2.019 -10.578,-6.056c-0.969,-1.238 -1.642,-3.203 -2.019,-5.895c0,-0.807 0.027,-1.561 0.081,-2.261c-0.215,-48.18 -0.323,-77.734 -0.323,-88.662c-0,-4.199 2.099,-7.752 6.298,-10.659c1.238,-0.861 4.118,-1.669 8.64,-2.422c6.622,-0.969 12.436,-1.454 17.442,-1.454Zm-7.025,25.759c0.054,12.812 0.081,22.637 0.081,29.474l-0,0.888l0.081,-0c3.606,-0 9.259,-1.185 16.957,-3.553c3.66,-1.292 6.89,-2.988 9.69,-5.087c3.068,-2.477 4.602,-5.572 4.602,-9.286c0,-5.061 -2.234,-8.479 -6.702,-10.256c-4.306,-1.722 -9.851,-2.584 -16.634,-2.584c-3.015,0 -5.706,0.135 -8.075,0.404Z" style="fill-rule:nonzero;"/><path d="M1011.16,50.751l1.454,0c7.644,0 14.965,3.042 21.964,9.125c4.199,4.199 6.917,7.51 8.155,9.932c7.429,12.489 11.144,26.863 11.144,43.12c-0,17.711 -4.468,31.976 -13.405,42.797c-7.536,8.29 -16.499,12.435 -26.889,12.435l-0.727,0c-9.259,0 -17.872,-3.122 -25.839,-9.367c-4.684,-4.468 -7.16,-7.159 -7.429,-8.075c-2.853,-3.929 -5.007,-7.751 -6.46,-11.466c-3.446,-8.882 -5.168,-18.195 -5.168,-27.939c-0,-17.334 4.522,-32.246 13.566,-44.735c3.014,-3.661 5.867,-6.487 8.559,-8.479c6.783,-4.898 13.808,-7.348 21.075,-7.348Zm-17.845,60.562c-0,10.228 2.342,18.572 7.025,25.032c3.445,4.307 7.806,6.46 13.081,6.46c7.268,0 12.059,-6.756 14.374,-20.268c0.484,-3.445 0.726,-6.648 0.726,-9.609c0,-11.574 -2.476,-21.641 -7.428,-30.2c-2.907,-4.414 -6.057,-6.622 -9.448,-6.622c-6.568,0 -11.897,6.057 -15.988,18.169c-1.561,5.599 -2.342,11.278 -2.342,17.038Z" style="fill-rule:nonzero;"/><path d="M1114.76,50.751l1.615,0c6.083,0 11.978,1.077 17.684,3.23c4.737,2.907 7.106,6.756 7.106,11.547c0,4.576 -2.342,8.291 -7.025,11.144c-2.046,0.915 -3.984,1.372 -5.814,1.372c-1.077,0 -3.526,-0.511 -7.348,-1.534c-1.938,-0.269 -3.795,-0.404 -5.572,-0.404c-6.944,0 -13.162,2.261 -18.653,6.783c-3.284,3.822 -5.518,9.367 -6.702,16.635c-0.592,3.768 -0.888,7.536 -0.888,11.304l-0,0.404c-0,11.843 2.342,21.049 7.025,27.616c1.723,1.884 3.176,2.827 4.36,2.827c2.477,0.753 5.141,1.13 7.995,1.13l0.323,0c8.182,0 13.189,-4.414 15.019,-13.243c0.215,-1.184 0.377,-2.961 0.484,-5.329c-0.053,-0.377 -0.08,-0.915 -0.08,-1.615c-0.27,-0.108 -0.539,-0.162 -0.808,-0.162l-0.888,0c-1.992,0 -4.926,0.485 -8.802,1.454c-0.538,0.107 -1.076,0.161 -1.615,0.161c-4.252,0 -7.779,-1.965 -10.578,-5.894c-1.346,-2.208 -2.019,-4.495 -2.019,-6.864c0,-4.307 2.073,-7.913 6.218,-10.82c1.131,-0.754 3.553,-1.562 7.268,-2.423c3.391,-0.646 6.11,-0.969 8.155,-0.969l2.584,0c6.406,0 12.22,2.127 17.442,6.379c5.652,5.222 8.478,12.113 8.478,20.672c0,12.651 -3.902,23.283 -11.708,31.896c-4.199,4.091 -7.564,6.621 -10.094,7.59c-5.975,3.015 -12.004,4.522 -18.087,4.522l-2.504,0c-5.76,0 -11.95,-1.238 -18.572,-3.714c-8.667,-3.984 -15.288,-11.763 -19.864,-23.337c-3.392,-9.367 -5.087,-18.895 -5.087,-28.585l-0,-2.826c-0,-11.951 2.422,-23.175 7.267,-33.672c4.468,-9.313 12.139,-16.285 23.014,-20.914c7.052,-2.907 13.942,-4.361 20.671,-4.361Z" style="fill-rule:nonzero;"/></g></g></svg>